<?xml version="1.0" encoding="utf-8"?>
<!-- Generator: Adobe Illustrator 16.0.0, SVG Export Plug-In . SVG Version: 6.00 Build 0)  -->
<svg version="1.2" baseProfile="tiny" id="Layer_1" xmlns="http://www.w3.org/2000/svg" xmlns:xlink="http://www.w3.org/1999/xlink"
	 x="0px" y="0px" width="248.5px" height="246.7px" viewBox="0 0 248.5 246.7" xml:space="preserve">
<g>
	<g>
		<path fill="#FFFFFF" d="M0,246.7V240h9.3c10.4,0,17.8-3.3,22.2-10c2.7-4,4-13,4-26.9V43.7c0-15.4-1.7-25-5.1-28.9
			c-4.7-5.3-11.8-8-21.1-8H0V0h100.4c36.9,0,64.9,4.2,84.1,12.6c19.2,8.4,34.7,22.3,46.4,41.8c11.7,19.5,17.6,42.1,17.6,67.7
			c0,34.3-10.4,63-31.3,86.1c-23.4,25.7-59.1,38.6-107,38.6H0z M70.4,228.9c15.4,3.4,28.3,5.1,38.8,5.1c28.1,0,51.5-9.9,70-29.7
			c18.6-19.8,27.8-46.6,27.8-80.4c0-34.1-9.3-60.9-27.8-80.6c-18.6-19.6-42.4-29.5-71.5-29.5c-10.9,0-23.4,1.8-37.3,5.3V228.9z"/>
	</g>
	<g>
		<path fill="#FFFFFF" d="M206.5,31.8v45.5h-3.9c-7.8-24-23.9-40.4-36.1-49.1c-12.2-8.7-27.6-13-46.5-13c-14.3,0-25.9,3-34.7,9.1
			c-8.8,6.1-13.2,12.8-13.2,20.1c0,9.2,3.3,17,9.8,23.5c6.3,6.7,19.2,13.8,38.6,21.3l44.8,17.4c41.5,16.2,62.3,37.5,62.3,64
			c0,20.4-9.7,36.9-29,49.4c-19.3,12.5-40.9,18.8-64.9,18.8c-17.2,0-36.8-2.5-58.9-7.4c-6.7-1.6-12.3-2.5-16.6-2.5
			c-4.7,0-8.4,2.1-11,6.4H37.2v-80.2h10.1c5.7,22.9,16.7,40.1,32.8,51.8c16.2,11.6,34.2,17.4,54.3,17.4c14.1,0,25.6-3.3,34.5-9.9
			c8.9-6.6,13.3-14.6,13.3-23.9c0-11.3-5-20.8-14.9-28.5c-9.9-7.7-29.7-17.4-59.3-29.2c-29.6-11.8-49.1-22.4-58.3-31.9
			C40.6,91.8,36,80,36,65.8c0-18.5,7.9-33.9,23.8-46.4C75.6,7,96.1,0.8,121.3,0.8c11,0,24.4,1.9,40.2,5.6
			c10.4,2.4,17.4,9.9,20.9,9.9c3.3,0,5.8,5.6,7.7,4.5c1.8-1.1,4,15,6.4,11H206.5z"/>
	</g>
</g>
</svg>
