<?xml version="1.0" standalone="no"?>
<!DOCTYPE svg PUBLIC "-//W3C//DTD SVG 20010904//EN"
 "http://www.w3.org/TR/2001/REC-SVG-20010904/DTD/svg10.dtd">
<svg version="1.0" xmlns="http://www.w3.org/2000/svg"
 width="500.000000pt" height="500.000000pt" viewBox="0 0 500.000000 500.000000"
 preserveAspectRatio="xMidYMid meet">
<metadata>
Created by potrace 1.11, written by Peter Selinger 2001-2013
</metadata>
<g transform="translate(0.000000,500.000000) scale(0.100000,-0.100000)"
fill="#000000" stroke="none">
<path d="M10 4893 l0 -68 148 -1 c103 -1 166 -7 211 -18 134 -36 244 -115 281
-202 26 -59 49 -177 58 -294 4 -52 7 -887 6 -1855 -1 -1892 -1 -1886 -54
-2028 -36 -96 -126 -176 -242 -217 -74 -26 -124 -32 -268 -35 -69 -2 -128 -3
-132 -4 -5 -1 -8 -31 -8 -67 l0 -65 1283 4 c705 2 1300 7 1322 10 22 3 67 9
100 12 51 5 284 40 336 50 9 2 63 15 120 28 687 166 1182 531 1508 1114 94
168 212 475 237 618 3 17 10 50 15 75 6 25 12 63 15 85 3 22 7 50 9 62 27 128
28 723 1 859 -2 12 -7 39 -10 60 -77 484 -306 943 -635 1274 -121 121 -134
133 -251 216 -306 221 -693 352 -1205 410 -33 3 -67 8 -75 9 -8 2 -60 6 -115
10 -55 4 -111 10 -125 12 -14 3 -589 7 -1277 10 l-1253 5 0 -69z m2629 -258
c197 -40 436 -139 609 -251 422 -274 701 -678 827 -1197 35 -143 52 -253 70
-452 5 -55 8 -217 6 -308 l-1 -59 -47 40 c-105 87 -302 207 -476 290 -158 76
-166 79 -522 217 -137 53 -378 147 -535 207 -667 259 -909 407 -1036 635 -69
123 -98 298 -68 411 34 128 178 279 349 365 66 33 210 83 260 91 22 3 56 9 75
12 140 24 367 24 489 -1z m-734 -2218 c72 -30 200 -83 285 -117 85 -34 169
-67 185 -75 17 -7 57 -24 90 -38 410 -172 742 -344 894 -462 194 -151 293
-333 294 -545 1 -121 -6 -159 -47 -246 -38 -79 -101 -148 -231 -250 -131 -102
-260 -155 -450 -184 -138 -22 -428 -14 -576 15 -13 3 -33 7 -44 9 -295 59
-633 231 -840 427 l-49 47 -1 814 c0 447 1 818 3 824 2 6 78 -26 180 -76 97
-48 236 -113 307 -143z"/>
</g>
</svg>
